<svg style="position: absolute; width: 0; height: 0; overflow: hidden;" version="1.1" xmlns="http://www.w3.org/2000/svg">
<defs>
<symbol id="icon-chevron_right" viewBox="0 0 16 32">
<title>chevron_right</title>
<path d="M0.867 31.236l-0.688-0.764 12.888-14.292-12.909-14.317 1.397-1.55 14.286 15.842-14.286 15.842-0.688-0.764z"></path>
</symbol>
<symbol id="icon-chevron_left" viewBox="0 0 16 32">
<title>chevron_left</title>
<path d="M7.301 24l-7.143-8 14.286-16 1.397 1.565-12.909 14.458 12.888 14.435-1.377 1.543z"></path>
</symbol>
<symbol id="icon-close" viewBox="0 0 32 32">
<title>close</title>
<path d="M4.538 1.482l26.157 26.157c0.543 0.543 0.543 1.424 0 1.968l-1.157 1.157c-0.543 0.543-1.424 0.543-1.968 0l-26.157-26.157c-0.543-0.543-0.543-1.424 0-1.968l1.157-1.157c0.543-0.543 1.424-0.543 1.968 0z"></path>
<path d="M27.482 0.983l-26.157 26.157c-0.543 0.543-0.543 1.424 0 1.968l1.157 1.157c0.543 0.543 1.424 0.543 1.968 0l26.157-26.157c0.543-0.543 0.543-1.424 0-1.968l-1.157-1.157c-0.543-0.543-1.424-0.543-1.968 0z"></path>
</symbol>
<symbol id="icon-hamburger" viewBox="0 0 52 32">
<title>hamburger</title>
<path d="M2.213 0h47.268c0.982 0 1.778 0.796 1.778 1.778v2.091c0 0.982-0.796 1.778-1.778 1.778h-47.268c-0.982 0-1.778-0.796-1.778-1.778v-2.091c0-0.982 0.796-1.778 1.778-1.778z"></path>
<path d="M2.213 13.177h47.268c0.982 0 1.778 0.796 1.778 1.778v2.091c0 0.982-0.796 1.778-1.778 1.778h-47.268c-0.982 0-1.778-0.796-1.778-1.778v-2.091c0-0.982 0.796-1.778 1.778-1.778z"></path>
<path d="M2.213 26.354h47.268c0.982 0 1.778 0.796 1.778 1.778v2.091c0 0.982-0.796 1.778-1.778 1.778h-47.268c-0.982 0-1.778-0.796-1.778-1.778v-2.091c0-0.982 0.796-1.778 1.778-1.778z"></path>
</symbol>
</defs>
</svg>
