<!-- Generated by IcoMoon.io -->
<svg version="1.1" xmlns="http://www.w3.org/2000/svg" width="32" height="32" viewBox="0 0 32 32">
<title>close</title>
<path d="M4.538 1.482l26.157 26.157c0.543 0.543 0.543 1.424 0 1.968l-1.157 1.157c-0.543 0.543-1.424 0.543-1.968 0l-26.157-26.157c-0.543-0.543-0.543-1.424 0-1.968l1.157-1.157c0.543-0.543 1.424-0.543 1.968 0z"></path>
<path d="M27.482 0.983l-26.157 26.157c-0.543 0.543-0.543 1.424 0 1.968l1.157 1.157c0.543 0.543 1.424 0.543 1.968 0l26.157-26.157c0.543-0.543 0.543-1.424 0-1.968l-1.157-1.157c-0.543-0.543-1.424-0.543-1.968 0z"></path>
</svg>
