<!-- Generated by IcoMoon.io -->
<svg version="1.1" xmlns="http://www.w3.org/2000/svg" width="52" height="32" viewBox="0 0 52 32">
<title>hamburger</title>
<path d="M2.213 0h47.268c0.982 0 1.778 0.796 1.778 1.778v2.091c0 0.982-0.796 1.778-1.778 1.778h-47.268c-0.982 0-1.778-0.796-1.778-1.778v-2.091c0-0.982 0.796-1.778 1.778-1.778z"></path>
<path d="M2.213 13.177h47.268c0.982 0 1.778 0.796 1.778 1.778v2.091c0 0.982-0.796 1.778-1.778 1.778h-47.268c-0.982 0-1.778-0.796-1.778-1.778v-2.091c0-0.982 0.796-1.778 1.778-1.778z"></path>
<path d="M2.213 26.354h47.268c0.982 0 1.778 0.796 1.778 1.778v2.091c0 0.982-0.796 1.778-1.778 1.778h-47.268c-0.982 0-1.778-0.796-1.778-1.778v-2.091c0-0.982 0.796-1.778 1.778-1.778z"></path>
</svg>
